<?xml version="1.0" encoding="UTF-8"?>
<!--Generator: Apple Native CoreSVG 326-->
<!DOCTYPE svg
PUBLIC "-//W3C//DTD SVG 1.1//EN"
       "http://www.w3.org/Graphics/SVG/1.1/DTD/svg11.dtd">
<svg version="1.1" xmlns="http://www.w3.org/2000/svg" xmlns:xlink="http://www.w3.org/1999/xlink" viewBox="0 0 147.949 114.795">
 <g>
  <rect height="114.795" opacity="0" width="147.949" x="0" y="0"/>
  <path d="M18.9941 114.795L128.906 114.795C141.553 114.795 147.949 108.398 147.949 95.9961L147.949 18.8477C147.949 6.39648 141.553 0 128.906 0L18.9941 0C6.39648 0 0 6.34766 0 18.8477L0 95.9961C0 108.496 6.39648 114.795 18.9941 114.795ZM19.1895 106.152C12.3535 106.152 8.64258 102.539 8.64258 95.5078L8.64258 19.2871C8.64258 12.3047 12.3535 8.64258 19.1895 8.64258L128.76 8.64258C135.449 8.64258 139.258 12.3047 139.258 19.2871L139.258 95.5078C139.258 102.539 135.449 106.152 128.76 106.152Z" fill="black"/>
  <path d="M28.6621 33.3984C31.8848 33.3984 34.4727 30.8105 34.4727 27.5879C34.4727 24.3652 31.8848 21.7773 28.6621 21.7773C25.5371 21.7773 22.9004 24.4141 22.9004 27.5879C22.9004 30.7617 25.5371 33.3984 28.6621 33.3984ZM28.6621 52.9785C31.8848 52.9785 34.4727 50.3906 34.4727 47.2168C34.4727 43.9941 31.8848 41.4062 28.6621 41.4062C25.5371 41.4062 22.9004 44.043 22.9004 47.2168C22.9004 50.3418 25.5371 52.9785 28.6621 52.9785ZM28.6621 72.5586C31.8848 72.5586 34.4727 69.9707 34.4727 66.748C34.4727 63.5742 31.8848 61.0352 28.6621 61.0352C25.4883 61.0352 22.9004 63.623 22.9004 66.748C22.9004 69.9707 25.4883 72.5586 28.6621 72.5586ZM28.6621 92.8711C31.8848 92.8711 34.4727 90.2832 34.4727 87.0605C34.4727 83.8379 31.8848 81.25 28.6621 81.25C25.5371 81.25 22.9004 83.8867 22.9004 87.0605C22.9004 90.2344 25.5371 92.8711 28.6621 92.8711ZM48.5352 30.957L122.266 30.957C124.219 30.957 125.732 29.4922 125.732 27.5879C125.732 25.6836 124.17 24.1699 122.266 24.1699L48.5352 24.1699C46.6309 24.1699 45.1172 25.6836 45.1172 27.5879C45.1172 29.4922 46.582 30.957 48.5352 30.957ZM48.5352 50.6348L90.1367 50.6348C92.041 50.6348 93.5547 49.1211 93.5547 47.2168C93.5547 45.3125 92.041 43.75 90.1367 43.75L48.5352 43.75C46.6309 43.75 45.1172 45.3125 45.1172 47.2168C45.1172 49.1211 46.6309 50.6348 48.5352 50.6348ZM48.5352 70.2148L122.266 70.2148C124.219 70.2148 125.732 68.7012 125.732 66.748C125.732 64.8438 124.219 63.3789 122.266 63.3789L48.5352 63.3789C46.582 63.3789 45.1172 64.8438 45.1172 66.748C45.1172 68.7012 46.582 70.2148 48.5352 70.2148ZM48.5352 90.4785L90.1367 90.4785C92.041 90.4785 93.5547 88.9648 93.5547 87.0605C93.5547 85.1562 92.0898 83.6914 90.1367 83.6914L48.5352 83.6914C46.582 83.6914 45.1172 85.1562 45.1172 87.0605C45.1172 88.9648 46.6309 90.4785 48.5352 90.4785Z" fill="black"/>
 </g>
</svg>
