<?xml version="1.0" encoding="UTF-8"?>
<!--Generator: Apple Native CoreSVG 326-->
<!DOCTYPE svg
PUBLIC "-//W3C//DTD SVG 1.1//EN"
       "http://www.w3.org/Graphics/SVG/1.1/DTD/svg11.dtd">
<svg version="1.1" xmlns="http://www.w3.org/2000/svg" xmlns:xlink="http://www.w3.org/1999/xlink" viewBox="0 0 263.525 129.053">
 <g>
  <rect height="129.053" opacity="0" width="263.525" x="0" y="0"/>
  <path d="M255.762 113.184C255.762 118.213 251.855 121.289 245.459 121.289L190.19 121.289C191.663 118.927 192.432 116.153 192.432 113.184C192.432 102.425 185.966 90.3016 174.521 81.1837C182.359 77.1538 191.944 74.6094 202.93 74.6094C235.498 74.6094 255.762 96.9727 255.762 113.184ZM227.979 35.5957C227.979 51.2695 216.553 63.3301 202.979 63.3301C189.404 63.3301 177.979 51.2695 177.979 35.6934C177.979 20.5078 189.502 8.64258 202.979 8.64258C216.455 8.64258 227.979 20.3125 227.979 35.5957Z" fill="black"/>
  <path d="M184.619 113.184C184.619 118.213 180.713 121.289 174.365 121.289L118.999 121.289C120.471 118.927 121.24 116.153 121.24 113.184C121.24 102.431 114.782 90.3152 103.349 81.1988C111.192 77.1602 120.788 74.6094 131.787 74.6094C164.355 74.6094 184.619 96.9727 184.619 113.184ZM156.885 35.5957C156.885 51.2695 145.459 63.3301 131.885 63.3301C118.262 63.3301 106.836 51.2695 106.836 35.6934C106.836 20.5078 118.359 8.64258 131.885 8.64258C145.361 8.64258 156.885 20.3125 156.885 35.5957Z" fill="black"/>
  <path d="M60.6934 63.3301C74.2676 63.3301 85.6934 51.2695 85.6934 35.5957C85.6934 20.3125 74.1699 8.64258 60.6934 8.64258C47.168 8.64258 35.6934 20.5078 35.6934 35.6934C35.6934 51.2695 47.1191 63.3301 60.6934 63.3301ZM18.0664 121.289L103.174 121.289C109.57 121.289 113.477 118.213 113.477 113.184C113.477 96.9727 93.1641 74.6094 60.5957 74.6094C28.0762 74.6094 7.76367 96.9727 7.76367 113.184C7.76367 118.213 11.6699 121.289 18.0664 121.289Z" fill="black"/>
 </g>
</svg>
