<?xml version="1.0" encoding="UTF-8"?>
<!--Generator: Apple Native CoreSVG 326-->
<!DOCTYPE svg
PUBLIC "-//W3C//DTD SVG 1.1//EN"
       "http://www.w3.org/Graphics/SVG/1.1/DTD/svg11.dtd">
<svg version="1.1" xmlns="http://www.w3.org/2000/svg" xmlns:xlink="http://www.w3.org/1999/xlink" viewBox="0 0 127.197 127.295">
 <g>
  <rect height="127.295" opacity="0" width="127.197" x="0" y="0"/>
  <path d="M63.5742 127.197C98.6816 127.197 127.197 98.7305 127.197 63.623C127.197 28.5156 98.6816 0 63.5742 0C28.4668 0 0 28.5156 0 63.623C0 98.7305 28.4668 127.197 63.5742 127.197ZM63.5742 118.115C33.4473 118.115 9.08203 93.75 9.08203 63.623C9.08203 33.4961 33.4473 9.13086 63.5742 9.13086C93.7012 9.13086 118.066 33.4961 118.066 63.623C118.066 93.75 93.7012 118.115 63.5742 118.115Z" fill="#007aff"/>
  <path d="M34.7168 63.623C34.7168 66.2109 36.5723 68.0176 39.3066 68.0176L59.0332 68.0176L59.0332 87.793C59.0332 90.4785 60.8887 92.3828 63.4766 92.3828C66.1621 92.3828 68.0176 90.5273 68.0176 87.793L68.0176 68.0176L87.793 68.0176C90.4785 68.0176 92.3828 66.2109 92.3828 63.623C92.3828 60.8887 90.5273 59.0332 87.793 59.0332L68.0176 59.0332L68.0176 39.3066C68.0176 36.5723 66.1621 34.668 63.4766 34.668C60.8887 34.668 59.0332 36.5723 59.0332 39.3066L59.0332 59.0332L39.3066 59.0332C36.5723 59.0332 34.7168 60.8887 34.7168 63.623Z" fill="#007aff"/>
 </g>
</svg>
