<?xml version="1.0" standalone="no"?>
<!DOCTYPE svg PUBLIC "-//W3C//DTD SVG 20010904//EN"
 "http://www.w3.org/TR/2001/REC-SVG-20010904/DTD/svg10.dtd">
<svg version="1.0" xmlns="http://www.w3.org/2000/svg"
 width="675.000000pt" height="675.000000pt" viewBox="0 0 675.000000 675.000000"
 preserveAspectRatio="xMidYMid meet">
<metadata>
Created by potrace 1.14, written by Peter Selinger 2001-2017
</metadata>
<g transform="translate(0.000000,675.000000) scale(0.100000,-0.100000)"
fill="#000000" stroke="none">
<path d="M5700 6544 c-304 -24 -419 -63 -544 -183 -129 -124 -225 -274 -281
-439 -24 -72 -35 -92 -40 -78 -11 26 2 220 20 293 15 63 77 203 114 259 l21
32 -120 -43 c-281 -101 -450 -229 -563 -430 -84 -150 -157 -415 -157 -574 0
-67 -16 -40 -45 75 -45 176 -43 376 6 535 10 35 19 68 19 72 0 12 -108 -60
-185 -123 -230 -190 -353 -389 -412 -670 -19 -91 -25 -379 -10 -492 4 -32 3
-58 -1 -58 -13 0 -110 211 -127 277 -37 141 -41 342 -9 523 l6 35 -61 -62
c-71 -74 -207 -275 -261 -388 -47 -98 -67 -172 -81 -306 -21 -199 23 -507 95
-671 18 -40 -15 -13 -73 60 -127 159 -229 416 -232 584 l-1 43 -43 -89 c-44
-92 -79 -227 -91 -354 -15 -164 45 -431 141 -622 42 -85 104 -172 117 -164 5
3 21 31 37 63 144 284 618 917 890 1188 160 160 417 391 563 506 123 98 428
302 623 418 157 93 518 277 640 327 44 18 101 42 128 52 74 31 55 10 -41 -44
-100 -57 -482 -294 -497 -308 -7 -7 -1 -8 15 -4 21 6 22 5 7 -4 -9 -6 -21 -9
-26 -5 -11 6 -196 -103 -366 -218 -207 -139 -487 -371 -740 -614 -254 -243
-332 -326 -459 -488 -44 -55 -105 -131 -136 -170 -31 -38 -79 -104 -106 -145
-77 -116 -251 -365 -294 -423 -52 -67 -97 -153 -105 -198 -6 -34 -5 -36 37
-54 24 -10 51 -25 60 -33 15 -12 19 -10 41 25 13 21 36 61 50 88 31 60 224
380 321 532 101 158 340 467 486 628 70 77 231 239 356 360 319 307 338 325
434 394 161 116 265 192 329 239 36 26 72 51 80 56 30 17 -75 -87 -159 -157
-263 -219 -381 -327 -620 -567 -514 -513 -711 -759 -1003 -1255 -118 -199
-174 -308 -183 -351 -5 -27 -3 -32 18 -38 57 -17 266 -18 388 -2 250 33 409
89 559 198 l73 53 -93 7 c-179 13 -323 70 -412 163 -29 31 -61 70 -71 86 l-18
30 39 -19 c221 -113 575 -101 848 27 96 45 285 185 285 211 0 4 -30 3 -67 -2
-83 -10 -262 5 -328 28 -122 40 -212 102 -285 194 l-30 38 41 -20 c82 -39 173
-53 359 -52 161 0 182 2 263 27 198 61 343 150 496 304 57 57 102 106 100 108
-2 2 -28 -3 -57 -10 -224 -58 -452 -30 -609 75 -65 43 -137 112 -94 90 45 -23
86 -31 206 -40 268 -20 513 41 698 174 82 58 319 306 294 306 -3 0 -34 -7 -69
-16 -80 -21 -269 -14 -341 11 -42 15 -197 108 -197 118 0 2 24 -2 53 -10 39
-11 93 -13 212 -10 171 5 221 15 362 68 83 32 83 32 131 108 66 103 146 251
135 251 -4 0 -36 -10 -70 -22 -59 -21 -82 -21 -69 1 4 5 40 26 80 45 81 39 91
50 130 149 50 125 97 367 80 412 -6 15 -126 49 -230 64 -79 12 -304 21 -374
15z"/>
<path d="M2700 3459 c-17 -28 -30 -52 -28 -54 42 -35 251 -166 307 -192 81
-36 215 -83 241 -83 16 0 74 116 65 131 -3 4 -19 10 -36 14 -38 9 -279 104
-339 135 -25 13 -72 40 -106 61 -34 22 -64 39 -67 39 -3 0 -19 -23 -37 -51z"/>
<path d="M1496 3354 c-51 -82 -350 -382 -864 -868 -133 -125 -242 -232 -242
-236 0 -4 26 -10 58 -14 219 -25 795 -182 1177 -322 390 -142 811 -346 1060
-514 209 -141 506 -407 620 -554 28 -36 53 -65 57 -65 3 -1 37 36 74 80 223
271 551 521 987 754 221 118 608 276 916 374 362 116 799 227 974 247 32 4 56
10 55 13 -2 4 -86 85 -188 181 -102 96 -331 321 -510 500 -302 301 -421 429
-432 462 -4 10 -19 8 -74 -9 -38 -12 -145 -43 -239 -68 -174 -48 -473 -145
-599 -195 -140 -55 -413 -183 -541 -252 -128 -70 -387 -237 -400 -258 -5 -8
-17 -1 -34 19 -14 17 -78 64 -141 106 l-114 75 -13 -43 c-28 -93 -28 -93 77
-174 52 -40 107 -87 123 -103 l27 -30 0 -635 c0 -629 0 -634 21 -654 16 -14
21 -34 24 -85 3 -50 1 -65 -8 -59 -7 3 -68 59 -137 124 -69 64 -154 141 -190
171 -292 245 -738 504 -1145 666 -336 134 -825 285 -1107 342 -43 8 -56 15
-51 26 3 8 118 121 257 251 138 131 289 278 336 327 170 180 236 252 258 280
20 26 25 28 48 17 14 -6 105 -33 202 -60 98 -27 259 -77 359 -110 101 -34 185
-61 187 -61 2 0 9 21 16 47 6 26 16 53 21 60 8 9 0 17 -28 31 -62 31 -392 137
-613 197 -113 31 -212 58 -220 61 -10 3 -25 -12 -44 -42z m3718 -174 c67 -85
406 -433 705 -723 61 -60 111 -113 111 -118 0 -5 -13 -9 -28 -9 -68 0 -759
-206 -1026 -305 -354 -132 -691 -303 -989 -502 -213 -142 -255 -175 -444 -351
-97 -90 -124 -111 -129 -98 -4 9 -1 56 5 104 7 60 10 279 7 682 l-4 594 35 33
c33 32 224 161 360 244 208 128 629 304 953 401 92 27 374 105 391 107 3 1 27
-26 53 -59z"/>
<path d="M5005 2969 c-174 -30 -283 -61 -485 -136 -277 -103 -426 -173 -612
-289 -194 -120 -338 -248 -338 -301 0 -6 60 29 133 79 263 180 418 262 714
382 231 93 457 169 635 212 112 27 117 29 101 46 -18 20 -63 22 -148 7z"/>
<path d="M5170 2774 c-227 -31 -413 -88 -745 -229 -291 -124 -493 -231 -656
-351 -79 -58 -199 -173 -199 -190 0 -29 24 -21 105 37 261 185 576 350 967
505 191 76 321 116 531 164 65 15 120 29 122 32 6 6 -6 48 -14 47 -3 -1 -53
-8 -111 -15z"/>
<path d="M5393 2598 c-304 -32 -674 -155 -1110 -368 -316 -155 -495 -273 -642
-423 -41 -43 -52 -59 -46 -75 5 -19 20 -11 157 90 195 143 318 215 613 359
325 158 666 277 1083 379 23 6 42 15 42 19 0 21 -29 27 -97 19z"/>
<path d="M5530 2405 c-8 -2 -49 -9 -90 -15 -287 -45 -713 -187 -1020 -339
-271 -134 -416 -218 -552 -319 -96 -71 -248 -223 -248 -248 0 -15 16 -19 24
-5 8 13 229 169 353 249 129 84 392 221 603 315 213 95 574 214 905 298 72 18
132 34 134 35 2 2 -2 10 -9 19 -11 14 -57 18 -100 10z"/>
<path d="M2643 3263 c-15 -44 -152 -260 -194 -308 -30 -34 -31 -36 -20 -83 17
-67 -1 -336 -27 -417 -11 -33 -25 -87 -32 -120 -7 -33 -27 -93 -46 -133 -27
-59 -39 -75 -64 -83 -41 -15 -38 -35 11 -60 56 -28 150 -47 301 -59 70 -6 145
-17 167 -25 49 -17 236 -141 314 -208 47 -39 61 -47 68 -36 5 8 9 19 9 25 0
21 -180 184 -267 241 l-88 58 125 0 c124 0 126 0 178 -32 29 -18 54 -33 57
-33 3 0 5 9 5 21 0 40 -64 111 -172 189 -137 100 -251 159 -275 144 -31 -19
-24 -31 44 -74 84 -53 165 -90 200 -90 14 0 24 -3 21 -6 -4 -3 -71 -7 -150
-10 -209 -6 -347 -19 -397 -38 -82 -31 -75 -19 109 180 211 229 309 308 399
323 l35 6 13 80 c17 105 59 251 84 293 10 18 19 39 19 45 0 7 -49 36 -108 65
-159 78 -248 126 -270 145 -24 22 -41 22 -49 0z m130 -137 c-38 -66 -109 -159
-146 -193 -77 -71 -130 -51 -71 28 14 19 44 66 66 104 22 39 52 85 66 103 l24
34 34 -33 c18 -18 30 -37 27 -43z m-44 -305 c28 -28 19 -49 -71 -169 -43 -57
-96 -137 -118 -178 -40 -71 -128 -180 -138 -170 -2 3 7 21 21 39 22 29 68 123
187 384 28 62 69 113 90 113 5 0 19 -9 29 -19z"/>
<path d="M1597 2969 c-7 -28 2 -35 57 -43 94 -15 613 -183 643 -208 10 -8 13
-1 13 36 0 36 -4 48 -22 60 -67 41 -462 148 -634 171 -48 6 -52 5 -57 -16z"/>
<path d="M1460 2770 c-13 -25 -5 -40 20 -40 46 0 353 -87 568 -160 l233 -79
10 26 c5 15 8 33 7 42 -5 25 -435 165 -598 194 -215 39 -228 40 -240 17z"/>
<path d="M1280 2580 c0 -13 9 -22 28 -26 89 -19 412 -115 618 -183 283 -93
293 -96 299 -79 17 47 11 59 -45 79 -320 114 -578 188 -751 214 -133 20 -149
20 -149 -5z"/>
<path d="M2862 2484 c-12 -8 -22 -19 -22 -24 0 -4 23 -22 51 -40 28 -17 100
-67 160 -110 91 -66 109 -76 109 -59 0 26 -103 135 -189 200 -71 54 -77 56
-109 33z"/>
<path d="M1124 2396 c-11 -24 -10 -25 30 -31 57 -10 326 -85 481 -135 273 -88
345 -105 345 -82 0 14 -54 59 -97 81 -90 45 -456 146 -618 170 -38 6 -83 13
-100 16 -25 4 -32 0 -41 -19z"/>
<path d="M614 2068 c-10 -24 -36 -62 -56 -84 l-38 -41 62 -12 c187 -37 526
-123 743 -190 548 -169 1125 -427 1395 -626 94 -68 252 -197 310 -253 l55 -53
-92 65 c-352 250 -901 514 -1474 712 -344 118 -770 228 -1001 259 -43 6 -48 4
-48 -13 0 -10 -13 -37 -29 -59 l-29 -40 52 -12 c28 -7 146 -35 261 -62 346
-81 444 -108 830 -235 346 -113 616 -224 944 -389 234 -117 526 -288 655 -385
104 -77 178 -99 262 -79 79 18 182 72 276 143 142 107 219 153 478 284 443
224 814 368 1375 533 164 49 744 189 781 189 3 0 -9 25 -26 55 -24 42 -29 59
-21 69 13 16 17 16 -194 -26 -319 -63 -762 -196 -1175 -353 -401 -152 -871
-388 -1153 -578 -71 -48 -134 -87 -140 -87 -13 0 -11 2 58 56 27 21 77 62 110
89 79 66 286 207 405 277 247 144 600 302 969 434 252 90 746 223 1039 279
l32 7 -37 43 c-36 40 -55 71 -66 106 -5 14 -25 11 -164 -26 -684 -182 -1122
-341 -1523 -554 -413 -220 -722 -453 -943 -711 -49 -58 -101 -114 -115 -125
l-25 -19 -31 39 c-60 76 -228 255 -300 321 -399 358 -986 668 -1691 894 -158
51 -256 79 -595 171 -41 11 -82 23 -91 25 -11 3 -22 -9 -35 -38z"/>
<path d="M2445 1925 c22 -20 69 -55 105 -76 171 -104 401 -261 508 -348 23
-18 45 -31 48 -28 11 11 -55 94 -130 164 -74 69 -221 173 -346 244 -67 38
-129 62 -190 73 l-35 7 40 -36z"/>
<path d="M166 1680 c-49 -55 -63 -104 -48 -170 8 -34 9 -35 87 -51 44 -10 159
-41 255 -69 96 -29 236 -70 310 -92 221 -64 441 -134 691 -218 513 -173 1152
-455 1384 -611 318 -214 472 -256 692 -188 88 27 163 66 293 149 264 169 651
354 1090 520 320 121 1126 374 1565 490 66 18 125 36 131 41 18 15 27 96 15
132 -6 18 -31 52 -55 76 -38 38 -44 40 -56 26 -22 -27 -68 -46 -179 -75 -58
-15 -194 -51 -301 -79 -107 -29 -247 -66 -310 -82 -418 -110 -1007 -318 -1310
-462 -440 -209 -625 -311 -735 -407 -99 -85 -191 -130 -286 -137 -126 -9 -179
13 -356 149 -45 35 -130 92 -189 128 -207 123 -638 330 -874 419 -58 21 -131
50 -162 65 -76 34 -631 211 -788 251 -178 45 -626 165 -684 182 -26 8 -66 25
-87 39 -21 13 -41 24 -43 24 -2 0 -25 -23 -50 -50z"/>
</g>
</svg>
